<?xml version="1.0" standalone="no"?>
<!DOCTYPE svg PUBLIC "-//W3C//DTD SVG 20010904//EN"
 "http://www.w3.org/TR/2001/REC-SVG-20010904/DTD/svg10.dtd">
<svg version="1.0" xmlns="http://www.w3.org/2000/svg"
 width="160.000000pt" height="160.000000pt" viewBox="0 0 160.000000 160.000000"
 preserveAspectRatio="xMidYMid meet">
<metadata>
Created by potrace 1.11, written by Peter Selinger 2001-2013
</metadata>
<g transform="translate(0.000000,160.000000) scale(0.100000,-0.100000)"
fill="#000000" stroke="none">
<path d="M699 1586 c-2 -2 -21 -7 -42 -10 -21 -3 -47 -11 -58 -16 -10 -6 -19
-8 -19 -4 0 3 -16 -3 -36 -15 -19 -12 -39 -21 -45 -21 -16 0 -112 -72 -161
-121 -27 -26 -48 -44 -48 -41 0 28 -115 -197 -125 -244 -30 -142 -30 -184 -1
-325 10 -46 133 -269 166 -299 3 -3 23 -27 45 -55 68 -86 208 -240 222 -243 7
-2 13 -7 13 -12 0 -4 25 -32 56 -61 30 -30 68 -66 82 -80 39 -37 59 -42 82
-19 11 11 22 20 25 20 19 2 118 102 275 279 14 15 41 45 60 66 115 128 226
312 256 428 16 62 21 182 10 234 -4 16 -8 37 -10 48 -19 90 -93 220 -169 296
-58 57 -83 79 -91 79 -3 0 -25 14 -49 30 -25 17 -47 30 -50 30 -2 0 -22 8 -43
17 -22 9 -44 18 -51 19 -6 1 -34 7 -63 13 -48 10 -222 16 -231 7z m264 -314
c83 -41 138 -97 179 -180 30 -61 33 -74 33 -162 -1 -82 -5 -103 -28 -153 -85
-179 -287 -263 -477 -200 -81 27 -164 104 -205 189 -36 75 -36 74 -37 170 -1
71 3 89 29 147 38 81 102 148 174 182 29 14 61 30 69 35 8 4 56 7 106 6 81 -2
100 -6 157 -34z"/>
<path d="M734 1116 c-41 -15 -94 -64 -110 -103 -36 -84 -3 -197 70 -242 51
-32 142 -38 192 -13 93 48 134 141 102 233 -22 63 -70 113 -121 126 -42 10
-103 9 -133 -1z"/>
</g>
</svg>
